<svg width="104" height="97" viewBox="0 0 104 97" fill="none" xmlns="http://www.w3.org/2000/svg">
<path d="M0 14.4422C2.14719 49.8478 22.5918 80.3157 52 96.5122C81.4082 80.3157 101.853 49.8478 104 14.4422C88.8216 5.2704 71.0286 -0.00965881 52 -0.00965881C32.9714 -0.00965881 15.1784 5.2704 0 14.4422Z" fill="white"/>
<path d="M72.2177 34.3455C72.7174 33.2811 73.8142 32.5315 75.022 32.5315H91.8247L86.9657 43.2489H80.3575L83.3655 36.6361H77.6782L72.5601 47.7932H92.5697C96.9474 38.0198 99.6314 27.4365 100.279 16.3535C86.3132 8.18119 69.7558 3.44719 52.0044 3.44719C34.2531 3.44719 17.6956 8.18119 3.72961 16.3535C4.37285 27.3578 7.01982 37.8671 11.342 47.5803L16.349 36.6824L14.5442 32.5268H45.8451L36.8584 51.9025H30.2456L37.3628 36.6361H33.4155L26.3816 51.9025H19.7688L26.8027 36.6361H22.9016L15.8677 51.9025H13.4105C21.8697 68.534 35.3267 82.5694 52.0044 92.3474C68.6822 82.5694 82.1438 68.534 90.5984 51.9025H64.1148L72.2223 34.3408L72.2177 34.3455Z" fill="#0A2240"/>
<path d="M52.0925 32.5315C50.8847 32.5315 49.788 33.2812 49.2929 34.3455L41.1854 51.9071H47.7149L50.3803 46.1921H56.026L53.3235 51.9071H59.9316L68.8906 32.5315H52.0925ZM57.9603 42.0782H52.2962L54.7488 36.6408H60.4361L57.9603 42.0782Z" fill="white"/>
<path d="M52.0001 7.93127C67.2294 7.93127 82.232 11.7768 95.5085 19.0421C95.1845 22.0176 94.7079 24.9561 94.1017 27.853H9.90307C9.29686 24.9561 8.82022 22.0176 8.50092 19.0421C21.7774 11.7768 36.7754 7.93127 52.0047 7.93127H52.0001Z" fill="white"/>
<path d="M51.9998 87.0026C39.3758 79.4134 28.9684 68.9736 21.4486 56.766H82.5557C75.0312 68.9782 64.6192 79.4134 51.9998 87.0026Z" fill="white"/>
<path d="M26.979 59.7555C32.1896 67.1411 38.5525 73.7262 45.878 79.2561C44.5082 74.6748 42.6664 67.9602 40.8848 59.7555H26.979Z" fill="#009845"/>
<path d="M12.3977 25.1367H35.6975C35.3736 21.0367 35.1468 16.8348 35.0589 12.5682C26.9329 14.1693 19.0568 16.8996 11.6989 20.7081C11.8933 22.1936 12.1293 23.6697 12.3977 25.1367Z" fill="#009845"/>
<path d="M91.6124 25.1367C91.8808 23.6697 92.1214 22.1936 92.3158 20.7081C84.9533 16.8996 77.0772 14.1693 68.9512 12.5682C68.8586 16.8348 68.6365 21.0367 68.3126 25.1367H91.6124Z" fill="#009845"/>
<path d="M77.0262 59.7555H63.1249C61.3433 67.9602 59.5062 74.6702 58.1364 79.2515C65.4572 73.7215 71.8248 67.1411 77.0308 59.7555H77.0262Z" fill="#009845"/>
<path d="M52.0045 61.6482L53.4112 65.9888H57.9787L54.2859 68.6728L55.6926 73.0135L52.0045 70.3295L48.3117 73.0135L49.7184 68.6728L46.0303 65.9888H50.5931L52.0045 61.6482Z" fill="#8C9091"/>
<path d="M43.1103 15.4418H44.8873L41.7359 22.3091H39.9589L43.1103 15.4418Z" fill="#8C9091"/>
<path d="M51.2317 16.136C51.227 16.2285 51.1993 16.3164 51.1623 16.3951L48.8161 21.4854C48.5847 21.9621 48.0896 22.2953 47.5435 22.2953L43.2352 22.3091L43.8785 20.9255H47.2982L47.8859 19.6529H45.3176C44.9335 19.6529 44.6466 19.3429 44.679 18.9588C44.6837 18.8662 44.7068 18.7783 44.7438 18.6996L45.8729 16.2517C46.1043 15.775 46.5995 15.4418 47.1455 15.4418H50.5931C50.9772 15.4418 51.2641 15.7519 51.2363 16.136H51.2317ZM46.7198 18.2693H48.5245L49.1863 16.8255H47.3815L46.7198 18.2693Z" fill="#8C9091"/>
<path d="M57.0717 21.6104C57.0764 21.5178 57.1041 21.4299 57.1411 21.3512L59.4873 16.2609C59.7187 15.7843 60.2138 15.4511 60.7599 15.4511L65.0728 15.4372L64.4296 16.8162H61.0098L60.4221 18.0934H62.9904C63.3745 18.0934 63.6614 18.4035 63.629 18.7876C63.6197 18.8801 63.5966 18.9634 63.5596 19.0467L62.4305 21.4901C62.1991 21.9667 61.7039 22.3045 61.1579 22.3045H57.7057C57.3216 22.3045 57.0347 21.9945 57.0671 21.6058L57.0717 21.6104ZM61.579 19.4771H59.7742L59.1125 20.9209H60.9172L61.579 19.4771Z" fill="#8C9091"/>
<path d="M58.2979 15.4418H56.5256L55.2299 18.2693H53.4251L54.7208 15.4418H53.8462C53.3002 15.4418 52.805 15.7796 52.5736 16.2517L51.4445 18.6996C51.4075 18.7783 51.3843 18.8662 51.3751 18.9588C51.3473 19.3429 51.6342 19.6529 52.0183 19.6529H54.5866L53.3835 22.3045H55.1512L58.2979 15.4418Z" fill="#8C9091"/>
<path d="M77.7063 81.6021H76.9566L76.0403 83.6614H75.3277L76.244 81.6021H75.4943L75.7488 81.0329H77.9608L77.7063 81.6021ZM80.5476 83.6614H79.8442L80.7605 81.6067H80.6864L79.4 83.0459H78.9048V81.579H78.8076L77.8821 83.6614H77.2157L78.3865 81.0329H79.5342L79.4925 82.3194L80.617 81.0329H81.7276L80.5568 83.6614H80.5476Z" fill="#0A2240"/>
</svg>
